<?xml version="1.0" standalone="no"?>
<!DOCTYPE svg PUBLIC "-//W3C//DTD SVG 20010904//EN"
 "http://www.w3.org/TR/2001/REC-SVG-20010904/DTD/svg10.dtd">
<svg version="1.0" xmlns="http://www.w3.org/2000/svg"
 width="32" height="32" viewBox="0 0 326.000000 360.000000"
 preserveAspectRatio="xMidYMid meet">

<g transform="translate(0.000000,360.000000) scale(0.100000,-0.100000)"
fill="#000000" stroke="none">
<path d="M1475 3359 c-203 -21 -368 -69 -550 -159 -433 -215 -734 -608 -841
-1100 -27 -122 -27 -478 0 -600 106 -488 398 -876 823 -1093 355 -181 726
-222 1113 -123 509 129 928 524 1094 1031 88 269 99 579 30 860 -140 580 -619
1041 -1204 1159 -163 33 -313 41 -465 25z m276 -59 c675 -66 1209 -542 1351
-1206 33 -157 33 -430 0 -588 -43 -198 -111 -365 -212 -521 -247 -378 -633
-621 -1080 -680 -141 -19 -234 -19 -373 0 -345 46 -630 187 -877 435 -214 213
-345 453 -412 751 -20 91 -23 130 -23 309 0 161 4 223 19 290 45 211 134 416
253 583 74 105 245 276 350 350 293 208 663 310 1004 277z"/>
<path d="M1396 3199 c-27 -21 -33 -48 -16 -79 7 -13 26 -21 67 -26 80 -9 99
-26 67 -58 -20 -20 -68 -21 -84 -1 -17 21 -42 19 -38 -2 5 -27 48 -44 93 -38
52 8 75 30 75 72 0 38 -15 48 -92 58 -54 7 -77 27 -58 50 14 17 71 20 87 4 6
-6 19 -9 29 -7 17 3 17 5 -4 26 -29 29 -89 30 -126 1z"/>
<path d="M1690 3120 c-27 -55 -50 -102 -50 -105 0 -15 41 -2 50 16 9 17 19 20
58 17 40 -3 47 -6 50 -25 2 -13 7 -23 12 -23 5 0 15 -2 22 -5 11 -5 7 22 -15
110 -28 105 -32 115 -53 115 -20 0 -32 -16 -74 -100z m84 19 c10 -53 8 -59
-24 -59 -34 0 -36 7 -16 55 18 43 32 44 40 4z"/>
<path d="M1979 3074 l-36 -103 69 -21 c65 -20 95 -20 83 1 -4 5 -26 14 -51 20
-24 6 -46 15 -49 19 -2 4 9 44 25 89 17 45 30 83 30 85 0 2 -8 6 -18 8 -15 4
-24 -12 -53 -98z"/>
<path d="M2230 2995 c-27 -43 -50 -82 -50 -87 0 -24 32 -66 58 -77 59 -24 82
-13 138 69 41 59 49 77 38 83 -20 11 -26 5 -70 -63 -43 -67 -73 -83 -104 -55
-28 25 -25 38 18 103 54 80 53 78 37 92 -12 10 -23 -1 -65 -65z"/>
<path d="M903 3045 c-20 -8 -39 -28 -49 -49 -16 -33 -16 -38 0 -80 10 -25 29
-55 43 -66 73 -57 189 19 164 108 -13 43 -38 77 -67 90 -32 15 -51 15 -91 -3z
m79 -35 c54 -42 61 -120 13 -142 -35 -16 -73 -2 -95 35 -28 45 -26 81 6 106
33 26 45 26 76 1z"/>
<path d="M1407 2915 c-398 -75 -724 -341 -870 -710 -60 -150 -72 -219 -72
-405 0 -180 11 -242 65 -391 134 -367 472 -648 871 -724 108 -20 345 -20 447
0 508 102 882 502 934 998 58 557 -303 1065 -861 1214 -123 32 -388 41 -514
18z m513 -90 c804 -230 1067 -1190 485 -1770 -214 -213 -478 -319 -790 -318
-189 1 -325 33 -490 115 -276 138 -491 399 -565 688 -28 107 -38 322 -20 425
77 437 407 777 850 876 70 15 116 18 260 15 154 -3 186 -7 270 -31z"/>
<path d="M1512 2764 c-7 -12 -17 -15 -36 -10 -14 3 -37 9 -50 12 -20 5 -25 2
-28 -17 -2 -18 -8 -23 -25 -21 -25 4 -63 -14 -63 -28 0 -6 10 -20 22 -32 l21
-21 -23 -19 c-21 -17 -34 -18 -130 -12 -102 6 -110 5 -164 -19 -73 -34 -129
-76 -118 -91 13 -16 12 -56 0 -56 -6 0 -3 -9 7 -20 23 -25 14 -45 -32 -69 -38
-20 -38 -20 -10 -21 16 0 59 14 97 30 38 17 82 30 98 30 65 0 114 -78 112
-179 -1 -65 28 -183 51 -207 14 -13 20 -14 37 -3 26 16 46 1 62 -47 13 -39 42
-55 155 -85 55 -14 77 -26 106 -56 35 -38 94 -68 111 -57 5 3 16 0 24 -7 20
-16 11 -73 -18 -113 -39 -54 -10 -229 46 -275 31 -26 14 -108 -50 -247 -96
-209 -97 -263 -5 -295 39 -14 55 -4 17 10 -40 16 -33 37 36 124 21 27 38 54
39 60 0 16 112 87 136 87 27 0 97 52 119 89 13 22 28 32 57 36 56 10 100 53
99 95 -1 43 10 63 70 128 52 58 60 91 30 128 -20 26 -54 44 -79 44 -36 0 -93
21 -93 35 0 7 -27 41 -60 74 -33 34 -60 57 -60 51 0 -18 -32 -10 -62 15 -24
20 -33 23 -45 14 -10 -9 -17 -9 -25 -1 -18 18 -40 14 -81 -13 -20 -14 -42 -23
-49 -19 -6 4 -26 7 -44 6 -35 -1 -90 35 -66 44 19 9 14 28 -10 39 -24 10 -24
15 -12 88 6 33 4 37 -16 37 -12 0 -31 -11 -42 -25 -37 -47 -55 -50 -88 -15
-32 35 -42 98 -17 118 6 5 46 12 87 14 41 3 81 7 89 9 9 2 21 -8 28 -24 8 -15
19 -25 25 -21 6 4 6 10 -1 17 -25 25 -12 69 35 119 38 41 44 53 39 77 -5 23 0
34 27 61 31 32 119 80 146 80 16 0 -29 73 -76 123 -42 43 -48 45 -55 15 -6
-22 -7 -22 -42 12 -40 39 -43 50 -14 50 18 0 20 4 14 28 -12 50 -45 92 -71 92
-14 0 -37 6 -52 14 -15 8 -42 12 -60 10 -22 -2 -35 1 -38 11 -8 20 -21 19 -32
-1z m22 -40 c10 -27 7 -64 -6 -64 -7 0 -13 10 -14 23 0 12 -4 30 -8 40 -6 12
-4 17 7 17 8 0 18 -7 21 -16z m76 -57 c22 -18 43 -63 36 -76 -4 -6 -7 -30 -8
-54 0 -23 -5 -48 -10 -54 -15 -19 -78 -17 -78 2 0 8 -9 15 -20 15 -24 0 -24 0
-3 50 19 43 27 49 37 25 6 -17 42 -20 51 -5 4 6 -3 27 -14 46 -32 53 -27 80 9
51z"/>
<path d="M1896 2033 c-11 -3 -26 -11 -34 -19 -11 -12 -8 -13 23 -9 42 5 57 13
50 26 -6 9 -9 10 -39 2z"/>
<path d="M1729 2013 c-13 -16 -12 -17 4 -4 11 9 30 11 57 7 25 -4 40 -2 40 4
0 18 -86 12 -101 -7z"/>
<path d="M1985 2010 c-3 -6 1 -7 9 -4 18 7 21 14 7 14 -6 0 -13 -4 -16 -10z"/>
<path d="M1555 1600 c-4 -6 6 -10 22 -10 22 0 25 2 13 10 -19 12 -27 12 -35 0z"/>
<path d="M1809 884 c-11 -14 -10 -15 11 -12 13 1 25 9 28 16 5 17 -23 15 -39
-4z"/>
<path d="M2504 2898 c-4 -7 2 -18 14 -26 12 -8 22 -20 22 -26 0 -6 -25 -40
-55 -75 -44 -52 -52 -67 -43 -79 13 -15 14 -15 100 87 l37 43 27 -21 c19 -15
31 -18 38 -11 6 6 6 13 1 18 -57 49 -123 102 -128 102 -3 0 -9 -5 -13 -12z"/>
<path d="M624 2828 l-54 -51 22 -25 c13 -13 49 -47 81 -74 45 -40 61 -48 70
-39 9 10 5 19 -22 42 l-33 31 28 29 c33 35 43 36 78 8 21 -17 30 -18 41 -9 12
10 10 16 -14 36 -16 13 -38 24 -50 24 -15 0 -21 6 -21 23 0 27 -28 57 -54 57
-9 0 -42 -23 -72 -52z m96 -3 c11 -13 10 -20 -6 -42 -34 -45 -51 -51 -76 -26
l-22 23 29 30 c32 33 56 38 75 15z"/>
<path d="M2643 2646 c-45 -33 -82 -65 -83 -69 0 -5 21 -35 46 -67 29 -38 51
-57 60 -53 9 3 11 10 6 17 -5 6 -23 30 -40 53 l-32 41 29 21 30 21 32 -45 c25
-35 35 -42 45 -34 11 9 7 20 -22 54 l-35 44 26 17 c25 16 28 16 36 1 22 -38
61 -76 74 -71 11 5 3 20 -30 65 -25 32 -49 60 -53 62 -4 3 -44 -23 -89 -57z"/>
<path d="M415 2593 c-19 -27 -35 -52 -35 -58 0 -5 39 -36 87 -67 69 -45 90
-55 101 -45 12 9 10 14 -9 29 -12 11 -29 22 -36 27 -12 6 -10 15 11 46 31 46
32 55 5 89 -15 19 -30 26 -55 26 -29 0 -39 -7 -69 -47z m93 5 c17 -17 15 -42
-6 -68 -19 -23 -19 -23 -50 -4 -18 10 -32 21 -32 24 0 11 51 60 63 60 7 0 18
-5 25 -12z"/>
<path d="M2860 2358 c-13 -34 -18 -38 -50 -38 l-35 -1 28 -17 c30 -18 33 -32
15 -65 -10 -20 -8 -20 24 5 l35 27 26 -25 26 -24 -6 34 c-4 27 -1 36 18 50
l23 16 -30 0 c-27 0 -33 5 -46 38 l-14 37 -14 -37z"/>
<path d="M363 2300 c-10 -26 -16 -30 -50 -30 l-38 0 33 -22 c18 -11 31 -26 29
-32 -2 -6 -8 -22 -12 -36 -7 -25 -7 -25 24 4 l31 30 23 -22 c31 -29 39 -28 26
5 -9 25 -7 30 18 50 l28 23 -37 0 c-31 0 -37 4 -47 30 -5 17 -11 30 -13 30 -2
0 -9 -13 -15 -30z"/>
<path d="M2880 2010 c0 -56 3 -70 15 -70 9 0 15 9 15 25 0 20 5 25 25 25 34 0
61 41 45 69 -8 16 -20 21 -55 21 l-45 0 0 -70z m77 34 c6 -16 -12 -34 -34 -34
-7 0 -13 11 -13 25 0 18 5 25 20 25 11 0 23 -7 27 -16z"/>
<path d="M266 1978 c-22 -30 -20 -81 2 -101 19 -18 68 -22 89 -9 33 21 36 95
5 120 -26 20 -79 15 -96 -10z m84 -23 c19 -51 -24 -97 -58 -63 -15 15 -15 61
0 76 20 20 48 14 58 -13z"/>
<path d="M2924 1813 c-9 -32 -19 -64 -21 -70 -8 -21 21 -15 35 7 7 11 19 20
28 20 9 0 18 -9 21 -20 3 -11 13 -20 23 -20 16 0 17 4 8 33 -5 17 -14 49 -20
70 -8 29 -15 37 -34 37 -20 0 -26 -9 -40 -57z m50 15 c10 -38 7 -48 -15 -48
-15 0 -19 4 -15 16 3 9 6 24 6 35 0 26 16 24 24 -3z"/>
<path d="M250 1690 c0 -56 3 -70 15 -70 9 0 15 9 15 25 0 19 5 25 23 25 29 0
47 18 47 47 0 26 -27 43 -69 43 l-31 0 0 -70z m65 25 c0 -11 -8 -21 -17 -23
-14 -3 -18 3 -18 23 0 20 4 26 18 23 9 -2 17 -12 17 -23z"/>
<path d="M2878 1580 c-2 -59 0 -70 13 -70 12 0 14 7 11 30 -4 28 -2 30 27 30
28 0 31 -3 31 -30 0 -20 5 -30 15 -30 12 0 15 14 15 70 0 56 -3 70 -15 70 -9
0 -15 -9 -15 -25 0 -21 -5 -25 -30 -25 -25 0 -30 4 -30 25 0 14 -4 25 -9 25
-5 0 -11 -32 -13 -70z"/>
<path d="M333 1540 c-35 -14 -31 -56 8 -75 36 -19 33 -41 -5 -38 -17 1 -26 -3
-26 -13 0 -18 61 -19 78 -2 23 23 14 58 -18 69 -36 13 -40 39 -6 39 30 0 42
15 20 24 -19 7 -23 7 -51 -4z"/>
<path d="M2842 1417 c-31 -33 -29 -80 4 -106 33 -26 55 -26 83 -3 32 26 37 72
11 105 -27 34 -68 36 -98 4z m70 -14 c23 -21 23 -45 -1 -74 -19 -23 -19 -24
-40 -5 -25 23 -27 58 -5 80 19 20 23 20 46 -1z"/>
<path d="M444 1227 c-8 -26 -16 -33 -44 -37 l-33 -5 27 -15 c27 -14 28 -20 11
-65 -7 -17 -3 -15 21 7 l29 27 32 -25 32 -24 -9 31 c-8 27 -6 34 13 50 l22 18
-32 1 c-27 0 -32 4 -38 30 -9 42 -21 45 -31 7z"/>
<path d="M2765 1210 c-6 -27 -10 -30 -48 -30 l-42 0 33 -22 c18 -11 31 -26 29
-32 -2 -6 -8 -22 -12 -36 -7 -25 -7 -25 24 4 l31 30 30 -29 30 -28 -10 34 c-9
30 -7 36 18 56 l27 22 -37 1 c-31 0 -37 4 -47 30 -5 17 -12 30 -15 30 -2 0 -7
-13 -11 -30z"/>
<path d="M2541 996 c-9 -10 5 -27 61 -78 89 -79 93 -81 107 -64 9 11 -6 28
-73 84 -67 57 -86 69 -95 58z"/>
<path d="M643 911 c-58 -63 -70 -81 -59 -90 10 -9 24 1 65 44 29 30 56 55 61
55 4 0 -2 -40 -15 -90 -20 -80 -21 -91 -8 -102 13 -11 27 -1 90 66 58 61 71
81 62 92 -8 10 -21 2 -64 -44 -29 -31 -55 -55 -58 -52 -3 3 4 42 15 88 16 66
18 85 8 97 -7 8 -15 15 -19 14 -3 0 -39 -35 -78 -78z"/>
<path d="M2409 879 c-24 -17 -48 -35 -53 -40 -5 -4 22 -46 59 -93 l68 -85 41
31 c56 43 66 57 66 90 0 60 -60 128 -113 128 -13 0 -44 -14 -68 -31z m99 -24
c16 -13 35 -38 42 -55 12 -29 11 -33 -15 -60 -16 -17 -32 -30 -36 -30 -9 0
-99 112 -99 123 0 8 60 47 72 47 3 0 20 -11 36 -25z"/>
<path d="M856 779 c-92 -72 -63 -199 46 -199 50 0 82 19 103 60 30 59 16 119
-35 145 -40 21 -83 19 -114 -6z m111 -31 c31 -29 29 -61 -8 -103 -38 -43 -75
-46 -108 -11 -29 31 -23 66 19 107 34 35 65 37 97 7z"/>
<path d="M2267 773 c-3 -5 13 -37 34 -72 22 -35 37 -66 35 -68 -2 -3 -37 14
-78 38 -40 23 -76 43 -79 45 -3 2 -14 -2 -23 -9 -16 -12 -13 -20 36 -103 31
-53 58 -89 66 -87 18 7 15 16 -24 83 -20 33 -34 63 -32 66 3 2 40 -16 83 -41
52 -31 83 -44 96 -40 11 4 19 10 17 13 -2 4 -25 46 -52 95 -45 79 -67 101 -79
80z"/>
<path d="M1085 599 c-10 -161 1 -166 105 -43 57 67 70 88 59 95 -14 9 -53 -28
-102 -98 -12 -18 -26 -33 -30 -33 -8 0 -3 90 9 151 4 20 0 28 -14 31 -18 5
-20 -2 -27 -103z"/>
<path d="M2061 593 c31 -111 25 -133 -36 -133 -30 0 -33 6 -56 92 -20 78 -22
83 -43 75 -12 -5 -11 -16 4 -76 23 -87 35 -110 63 -120 53 -20 127 16 127 62
0 12 -7 55 -17 95 -14 62 -20 72 -38 72 l-22 0 18 -67z"/>
<path d="M1295 529 c-23 -84 -26 -102 -14 -110 18 -11 22 -3 52 108 21 78 22
93 10 97 -8 3 -16 6 -17 6 -1 0 -15 -45 -31 -101z"/>
<path d="M1761 520 c-7 -49 -16 -90 -20 -90 -5 0 -18 33 -30 73 -28 95 -33
101 -66 93 -27 -7 -27 -9 -21 -59 3 -29 6 -76 6 -104 0 -46 3 -53 19 -53 18 0
19 6 14 90 -4 64 -3 90 6 90 6 0 11 -7 11 -15 0 -9 10 -48 22 -89 17 -60 24
-72 39 -69 18 5 39 75 39 128 0 30 10 55 21 55 5 0 9 -40 9 -90 0 -84 1 -90
21 -90 20 0 20 3 13 93 -4 50 -8 100 -8 110 0 12 -9 17 -32 17 l-31 0 -12 -90z"/>
</g>
</svg>
